<svg width="10" height="10" viewBox="0 0 10 10" fill="none" xmlns="http://www.w3.org/2000/svg">
<path fill-rule="evenodd" clip-rule="evenodd" d="M10 5V10H7.73585H5.4717V7.12963V4.25926H3.20755H0.943396V6.66667V9.07407H2.26415H3.58491V8.7037V8.33333H4.0566H4.5283V9.16667V10H2.26415H0V6.66667V3.33333H3.20755H6.41509V6.2037V9.07407H7.73585H9.0566V5V0.925926H6.79245H4.5283V1.75926V2.59259H4.0566H3.58491V1.2963V0H6.79245H10V5ZM8.11321 2.12963V2.59259H7.64151H7.16981V2.12963V1.66667H7.64151H8.11321V2.12963ZM6.41509 2.12963V2.59259H5.9434H5.4717V2.12963V1.66667H5.9434H6.41509V2.12963ZM8.11321 3.7963V4.25926H7.64151H7.16981V3.7963V3.33333H7.64151H8.11321V3.7963ZM8.11321 5.46296V5.92593H7.64151H7.16981V5.46296V5H7.64151H8.11321V5.46296ZM4.5283 5.46296V5.92593H4.0566H3.58491V5.46296V5H4.0566H4.5283V5.46296ZM2.83019 5.46296V5.92593H2.35849H1.88679V5.46296V5H2.35849H2.83019V5.46296ZM8.11321 7.12963V7.59259H7.64151H7.16981V7.12963V6.66667H7.64151H8.11321V7.12963ZM4.5283 7.12963V7.59259H4.0566H3.58491V7.12963V6.66667H4.0566H4.5283V7.12963ZM2.83019 7.12963V7.59259H2.35849H1.88679V7.12963V6.66667H2.35849H2.83019V7.12963Z" fill="white"/>
</svg>
