<svg width="185" height="38" viewBox="0 0 185 38" fill="none" xmlns="http://www.w3.org/2000/svg">
<path fill-rule="evenodd" clip-rule="evenodd" d="M13.4434 27.3896L41.5634 22.0844V16.9026L13.4434 22.0844V27.3896Z" fill="#EE3A37"/>
<path fill-rule="evenodd" clip-rule="evenodd" d="M13.4434 17.026L41.5634 11.7208V6.41559L13.4434 11.7208V17.026Z" fill="#EE3A37"/>
<path fill-rule="evenodd" clip-rule="evenodd" d="M13.4434 6.53896L20.4734 5.18182V0L13.4434 1.35714V6.53896Z" fill="#EE3A37"/>
<path fill-rule="evenodd" clip-rule="evenodd" d="M13.4434 37.8766L41.5634 32.5714V27.3896L13.4434 32.5714V37.8766Z" fill="#EE3A37"/>
<path fill-rule="evenodd" clip-rule="evenodd" d="M13.4433 27.3896L0 22.0844V16.9026L13.4433 22.0844V27.3896Z" fill="#A91A19"/>
<path fill-rule="evenodd" clip-rule="evenodd" d="M13.4433 17.026L0 11.7208V6.41559L13.4433 11.7208V17.026Z" fill="#A91A19"/>
<path fill-rule="evenodd" clip-rule="evenodd" d="M13.4433 37.8766L0 32.5714V27.3896L13.4433 32.5714V37.8766Z" fill="#A91A19"/>
<path fill-rule="evenodd" clip-rule="evenodd" d="M153.92 21.5909H147.877V11.8441H153.92V21.5909ZM160.827 6.2922C155.4 6.2922 150.343 6.16882 145.163 6.41557C142.573 6.53895 141.71 7.89609 141.34 10.487C141.217 11.8441 141.217 13.3247 141.217 14.6818C141.217 17.026 141.217 19.3701 141.217 21.5909C140.477 21.7143 139.86 21.5909 139.243 21.7143V27.513H162.8V21.8377C162.183 21.8377 161.567 21.8377 160.827 21.7143V6.2922Z" fill="#A91A19"/>
<path fill-rule="evenodd" clip-rule="evenodd" d="M110.383 21.5909H103.6V19.1234H110.383V21.5909ZM114.207 14.5584C112.603 14.4351 110.877 14.3117 109.15 14.3117C107.3 14.3117 105.45 14.3117 103.6 14.3117V11.7208H116.427V6.29221H96.9399V27.3896C102.49 27.3896 108.04 27.513 113.59 27.3896C116.057 27.3896 117.537 25.7857 117.66 23.3182C117.783 21.5909 117.783 19.8636 117.66 18.1364C117.413 15.7922 116.427 14.8052 114.207 14.5584Z" fill="#A91A19"/>
<path fill-rule="evenodd" clip-rule="evenodd" d="M87.9366 21.5909H80.7832V11.8442H87.9366V21.5909ZM90.6499 6.41559C86.4566 6.16884 82.2632 6.16884 78.0699 6.41559C75.4799 6.53897 74.3699 7.77274 74.2466 10.487C73.9999 14.5585 73.8766 18.7533 74.1232 22.8247C74.2466 26.0325 75.7266 27.2662 78.9332 27.3896C82.7566 27.513 86.4565 27.513 90.2799 27.3896C92.7465 27.2662 94.1032 26.1559 94.4732 23.6883C94.8432 21.4675 94.5966 19.2468 94.7199 17.026C94.7199 15.1753 94.7199 13.3247 94.7199 11.474C94.5966 8.26624 93.4866 6.53897 90.6499 6.41559Z" fill="#A91A19"/>
<path fill-rule="evenodd" clip-rule="evenodd" d="M51.3066 27.513H57.9666V11.8442H64.9966C64.9966 12.7078 64.9966 13.4481 64.9966 14.1883C64.9966 15.9156 64.9966 17.7662 64.9966 19.4935V19.7403C64.9966 20.974 64.9966 22.0844 64.9966 23.3182V27.6364H67.4633C68.9433 27.6364 70.4233 27.6364 71.9033 27.6364V19.6169V6.29221H51.3066V27.513Z" fill="#A91A19"/>
<path fill-rule="evenodd" clip-rule="evenodd" d="M126.663 19H137.023V14.3117H126.663V11.7208H137.763V6.29221H119.757V27.513H137.763V21.5909H126.663V19Z" fill="#A91A19"/>
<path fill-rule="evenodd" clip-rule="evenodd" d="M178.217 14.5584H171.187V11.7208H178.217V14.5584ZM169.953 6.16882C166.007 6.16882 164.527 7.77272 164.527 11.7208C164.527 15.1753 164.527 18.7532 164.527 22.2078V27.3896H164.65H171.187V22.2078V19H178.34V27.3896H185V6.16882C179.82 6.16882 174.887 6.16882 169.953 6.16882Z" fill="#A91A19"/>
<path fill-rule="evenodd" clip-rule="evenodd" d="M54.5134 33.0649H51.9233V37.8766H51.1833V32.5714H54.5134V33.0649ZM56.1167 35.6558V37.7532H55.5V32.448H57.5967C58.2134 32.448 58.5833 32.5714 58.9533 32.9416C59.3233 33.1883 59.4467 33.6818 59.4467 34.0519C59.4467 34.5455 59.3233 34.9156 58.9533 35.1623C58.5833 35.4091 58.2134 35.6558 57.5967 35.6558H56.1167ZM56.1167 35.1623H57.4733C57.8433 35.1623 58.09 35.039 58.3367 34.9156C58.46 34.6688 58.5833 34.4221 58.5833 34.1753C58.5833 33.9286 58.46 33.6818 58.3367 33.4351C58.2133 33.1883 57.8433 33.1883 57.4733 33.1883H56.1167V35.1623ZM61.79 35.039L62.0367 35.7792L63.27 32.5714H64.1333L62.2833 37.013C62.16 37.3831 62.0367 37.6299 61.79 37.7532C61.6667 37.8766 61.2967 38 60.9267 38C60.8034 38 60.8034 38 60.68 38C60.5567 38 60.5567 38 60.5567 38V37.5065H60.68C60.8034 37.5065 60.8033 37.5065 60.8033 37.5065C60.9267 37.5065 61.05 37.5065 61.1733 37.3831C61.2967 37.2597 61.2967 37.1364 61.42 37.013L61.5434 36.6429L59.6934 32.6948H60.5567L61.79 35.039ZM69.0667 37.8766H68.3267V33.0649H65.7367V37.8766H64.9967V32.5714H69.0667V37.8766ZM74.4934 37.8766H73.7533V33.0649H71.1634V37.8766H70.4233V32.5714H74.4934V37.8766ZM78.6867 36.5195H76.4667L75.9733 37.8766H75.2334L77.33 32.5714H77.9467L80.0434 37.8766H79.3034L78.6867 36.5195ZM76.7134 35.9026H78.5634L77.7 33.4351L76.7134 35.9026ZM83.8667 35.4091H83.25V37.8766H82.51V32.5714H83.25V34.9156H83.8667L85.84 32.5714H86.7034L84.6067 35.1623L86.8267 37.8766H85.9633L83.8667 35.4091ZM91.39 35.6558C91.39 36.2727 91.1433 36.8896 90.7733 37.2597C90.4033 37.7532 89.7867 37.8766 89.17 37.8766C88.5534 37.8766 88.06 37.6299 87.69 37.2597C87.32 36.7662 87.0733 36.2727 87.0733 35.6558V34.6688C87.0733 34.0519 87.32 33.4351 87.69 33.0649C88.06 32.5714 88.5534 32.448 89.17 32.448C89.7867 32.448 90.4033 32.6948 90.7733 33.0649C91.1433 33.5584 91.39 34.0519 91.39 34.6688V35.6558ZM90.65 34.6688C90.65 34.1753 90.5267 33.8052 90.28 33.4351C90.0333 33.0649 89.6634 32.9416 89.17 32.9416C88.8 32.9416 88.43 33.0649 88.1833 33.4351C87.9367 33.8052 87.8133 34.1753 87.8133 34.6688V35.6558C87.8133 36.1493 87.9367 36.5195 88.1833 36.8896C88.43 37.2597 88.8 37.3831 89.17 37.3831C89.6634 37.3831 90.0333 37.2597 90.28 36.8896C90.5267 36.5195 90.65 36.1493 90.65 35.6558V34.6688ZM93.3633 32.448L95.09 36.7662L96.8167 32.448H97.8034V37.7532H97.0633V35.7792L97.1867 33.5584L95.46 37.8766H94.9667L93.24 33.5584L93.3633 35.7792V37.8766H92.5V32.5714H93.3633V32.448ZM103.107 37.8766H102.367V33.0649H99.7767V37.8766H99.0367V32.5714H103.107V37.8766ZM107.423 36.5195H105.203L104.71 37.8766H103.97L106.067 32.5714H106.683L108.78 37.8766H108.04L107.423 36.5195ZM105.327 35.9026H107.177L106.313 33.4351L105.327 35.9026ZM113.467 37.8766H112.727V35.5325H110.137V37.8766H109.397V32.5714H110.137V35.039H112.727V32.5714H113.467V37.8766ZM118.03 32.448H118.77V37.7532H118.03V33.6818L115.44 37.7532H114.7V32.448H115.44V36.5195L118.03 32.448ZM123.457 32.448H124.197V37.7532H123.457V33.6818L120.867 37.8766H120.127V32.5714H120.867V36.6429L123.457 32.448ZM123.21 30.9675C123.21 31.2143 123.087 31.461 122.963 31.7078C122.717 31.8312 122.47 31.9545 122.1 31.9545C121.73 31.9545 121.483 31.8312 121.237 31.7078C120.99 31.5844 120.99 31.3377 120.99 30.9675H121.607C121.607 31.0909 121.607 31.2143 121.73 31.3377C121.853 31.461 121.977 31.461 122.1 31.461C122.223 31.461 122.347 31.461 122.47 31.3377C122.593 31.2143 122.593 31.0909 122.593 30.9675H123.21Z" fill="#1C2124"/>
</svg>
