<svg width="10" height="12" viewBox="0 0 10 12" fill="none" xmlns="http://www.w3.org/2000/svg">
<path fill-rule="evenodd" clip-rule="evenodd" d="M1.10796 1.03378C1.00027 1.10329 1.00154 1.08474 1.00074 2.58208L1 3.98019L1.06175 4.05211C1.12123 4.12137 1.13099 4.12407 1.32584 4.12518C1.43711 4.12584 3.06356 4.12636 4.94014 4.12636C6.81673 4.12636 8.38961 4.12584 8.43544 4.12518C8.49201 4.12439 8.53782 4.10496 8.57804 4.06468L8.63732 4.00534L8.64789 3.28353L8.65845 2.56173L9.10739 2.55637L9.55634 2.551V3.64183V4.73263L8.05106 5.23089C7.22316 5.50494 6.18584 5.8483 5.74592 5.99393C5.08154 6.21388 4.93661 6.26973 4.89028 6.32363L4.83451 6.38856L4.82832 7.09954L4.82213 7.81052L4.73325 7.827C4.50837 7.86868 4.31213 8.04051 4.21365 8.28194L4.15845 8.41725V9.91804C4.15845 11.4042 4.15889 11.42 4.20411 11.5339C4.27237 11.7059 4.40361 11.8574 4.55111 11.9345C4.67568 11.9996 4.69074 12.0015 5.04425 11.9996C5.43968 11.9973 5.52835 11.9771 5.66756 11.8574C5.76512 11.7735 5.80564 11.7168 5.87576 11.5664L5.9331 11.4434L5.93901 9.96995C5.94567 8.31621 5.94715 8.33567 5.79706 8.11454C5.70334 7.97649 5.51627 7.85232 5.36118 7.82523L5.26682 7.80875L5.27251 7.25289L5.27817 6.69701L5.77465 6.53224C6.04771 6.44161 6.96514 6.13847 7.81338 5.85859C9.92929 5.16043 9.89585 5.17236 9.95247 5.09584L10 5.03158V3.61639V2.2012L9.93825 2.12928C9.89236 2.07585 9.85573 2.05695 9.79564 2.05579C9.75117 2.05491 9.47711 2.05215 9.18662 2.04964L8.65845 2.04507L8.64766 1.60221C8.64172 1.35864 8.62868 1.13958 8.61869 1.11539C8.56853 0.994074 8.74366 0.999364 4.81972 1.0003C1.82124 1.00101 1.1493 1.00709 1.10796 1.03378Z" fill="white"/>
</svg>
